# xmcd CD database file
#
# Track frame offsets:
#	150
#	112328
#	131030
#
# Disc length: 3351 seconds
#
# Revision: 0
# Processed by: cddbd v1.5.2PL0 Copyright (c) Steve Scherf et al.
# Submitted via: CDex 1.70beta2
#
DISCID=2a0d1503
DTITLE=Conny Bauer - Tender Exploration
DYEAR=2010
DGENRE=Jazz
TTITLE0=Drake
TTITLE1=Parker
TTITLE2=Bauer
EXTD=YEAR: 2010
EXTT0=
EXTT1=
EXTT2=
PLAYORDER=
